<svg width="16" height="16" viewBox="0 0 16 16" xmlns="http://www.w3.org/2000/svg" shape-rendering="crispEdges">
  <rect width="16" height="16" fill="#1e1e1e"/>

  <g fill="#00FF00">
    <!-- Row 4-5: A top -->
    <rect x="7" y="4" width="2" height="2"/>

    <!-- Row 6-7: A widening + arrows -->
    <rect x="2" y="6" width="2" height="2"/>
    <rect x="6" y="6" width="1" height="2"/>
    <rect x="9" y="6" width="1" height="2"/>
    <rect x="12" y="6" width="2" height="2"/>

    <!-- Row 8-9: arrows tips + middle bar -->
    <rect x="0" y="8" width="2" height="1"/>
    <rect x="6" y="8" width="4" height="2"/>
    <rect x="14" y="8" width="2" height="1"/>
    <rect x="0" y="9" width="2" height="1"/>
    <rect x="14" y="9" width="2" height="1"/>

    <!-- Row 10: A legs + arrows -->
    <rect x="2" y="10" width="2" height="1"/>
    <rect x="5" y="10" width="2" height="1"/>
    <rect x="9" y="10" width="2" height="1"/>
    <rect x="12" y="10" width="2" height="1"/>

    <!-- Row 11: A legs -->
    <rect x="2" y="11" width="2" height="1"/>
    <rect x="5" y="11" width="2" height="1"/>
    <rect x="9" y="11" width="2" height="1"/>
    <rect x="12" y="11" width="2" height="1"/>
  </g>
</svg>
