<svg width="240" height="100" viewBox="0 0 24 10" xmlns="http://www.w3.org/2000/svg" shape-rendering="crispEdges">
  <rect width="24" height="10" fill="#000000"/>

  <g fill="#00FF00">
    <rect x="1" y="8" width="4" height="1"/>

    <rect x="7" y="3" width="1" height="1"/>
    <rect x="6" y="4" width="1" height="1"/>
    <rect x="5" y="5" width="1" height="1"/>
    <rect x="6" y="6" width="1" height="1"/>
    <rect x="7" y="7" width="1" height="1"/>

    <rect x="11" y="2" width="2" height="1"/>
    <rect x="10" y="3" width="1" height="5"/>
    <rect x="13" y="3" width="1" height="5"/>
    <rect x="11" y="5" width="2" height="1"/>

    <rect x="16" y="3" width="1" height="1"/>
    <rect x="17" y="4" width="1" height="1"/>
    <rect x="18" y="5" width="1" height="1"/>
    <rect x="17" y="6" width="1" height="1"/>
    <rect x="16" y="7" width="1" height="1"/>

    <rect x="19" y="8" width="4" height="1"/>
  </g>
</svg>
